[img]http://img27.imageshack.us/img27/5619/apolloc.jpg[/img]
[code]
Apollo 18 2011 BDRiP LiNE XviD 5.1 AC3 - MiSTERE
 
http://www.imdb.com/title/tt1772240/

SOURCE: Apollo 18 (2011) Blu-ray Disc

Video
ID                               : 0
Format                           : MPEG-4 Visual
Format profile                   : Advanced Simple@L5
Format settings, BVOP            : 2
Format settings, QPel            : No
Format settings, GMC             : No warppoints
Format settings, Matrix          : Default (H.263)
Muxing mode                      : Packed bitstream
Codec ID                         : XVID
Codec ID/Hint                    : XviD
Duration                         : 1h 26mn
Bit rate                         : 2 134 Kbps
Width                            : 720 pixels
Height                           : 384 pixels
Display aspect ratio             : 1.875
Frame rate                       : 23.976 fps
Color space                      : YUV
Chroma subsampling               : 4:2:0
Bit depth                        : 8 bits
Scan type                        : Progressive
Compression mode                 : Lossy
Bits/(Pixel*Frame)               : 0.322
Stream size                      : 1.29 GiB (82%)
Writing library                  : XviD 64

Audio
ID                               : 1
Format                           : AC-3
Format/Info                      : Audio Coding 3
Mode extension                   : CM (complete main)
Codec ID                         : 2000
Duration                         : 1h 26mn
Bit rate mode                    : Constant
Bit rate                         : 448 Kbps
Channel(s)                       : 6 channels
Channel positions                : Front: L C R, Side: L R, LFE
Sampling rate                    : 48.0 KHz
Bit depth                        : 16 bits
Compression mode                 : Lossy
Stream size                      : 278 MiB (17%)
Alignment                        : Aligned on interleaves
Interleave, duration             : 42 ms (1.00 video frame)


Resized cropped sharpened and tweaked RGB
Stripped the 2 ch LiNE
and remastered it into 6 channels
Take it or leave it
and wait for retail around christmas time
[/code]
Screens:
[img]http://img707.imageshack.us/img707/7237/27503141.png[/img]
[img]http://img853.imageshack.us/img853/1813/32734508.png[/img]
[img]http://img13.imageshack.us/img13/517/89558995.png[/img]
